<?xml version="1.0" encoding="UTF-8"?>
<svg width="601px" height="87px" viewBox="0 0 601 87" version="1.1" xmlns="http://www.w3.org/2000/svg" xmlns:xlink="http://www.w3.org/1999/xlink">
    <!-- Generator: Sketch 58 (84663) - https://sketch.com -->
    <title>press-techcrunch</title>
    <desc>Created with Sketch.</desc>
    <g id="Page-1" stroke="none" stroke-width="1" fill="none" fill-rule="evenodd">
        <g id="press-techcrunch" fill="#1A1919" fill-rule="nonzero">
            <polygon id="Fill-1" points="112.6 29 168.7 29 168.7 0.4 112.6 0.4"></polygon>
            <polyline id="Fill-2" points="0.5 0.4 0.5 29 28.5 29 28.5 86.2 56.5 86.2 56.5 29 84.6 29 84.6 0.4 0.5 0.4"></polyline>
            <polyline id="Fill-3" points="84.6 86.2 168.7 86.2 168.7 57.6 112.6 57.6 112.6 29 84.6 29 84.6 86.2"></polyline>
            <polyline id="Fill-4" points="240.2 22 199 22 199 33.9 212.8 33.9 212.8 71.2 226.4 71.2 226.4 33.9 240.2 33.9 240.2 22"></polyline>
            <path d="M255.7,33.5 C246,33.5 238.8,40 238.8,52.8 C238.8,64.1 244.9,72 256,72 C261.8,72 266.5,70.5 271,67.8 L266.2,59.7 C262.5,61.6 259.9,62.3 256.6,62.3 C253.2,62.3 250.8,60.5 250.3,56.4 L272,56.4 C272.1,55.8 272.1,55 272.1,53.9 C272.2,40.2 265.9,33.5 255.7,33.5 Z M250.5,48.5 C250.9,44.8 252.5,42.9 255.4,42.9 C259.1,42.9 260.4,44.8 261,48.5 L250.5,48.5 Z" id="Fill-5"></path>
            <path d="M296.2,61.7 C292.8,61.7 291,58.7 291,52.8 C291,47 292.6,43.7 295.9,43.7 C298.6,43.7 299.8,45.2 301.6,48.5 L310.3,41.9 C307.1,36.7 303.1,33.5 296.1,33.5 C284.3,33.5 278.5,41.3 278.5,52.6 C278.5,65 285,71.9 295.8,71.9 C302.3,71.9 306.3,69.4 310.6,63.1 L302.6,56.8 C300.2,60.4 298.6,61.7 296.2,61.7" id="Fill-6"></path>
            <path d="M339.8,33.5 C335.4,33.5 332.8,35 330.5,36.7 L330.5,20 L317.8,25.1 L317.8,71.3 L330.5,71.3 L330.5,50.2 C330.5,45.6 332.1,44.3 334.8,44.3 C337.4,44.3 339,45.6 339,50.3 L339,71.3 L351.7,71.3 L351.7,48.7 C351.7,39 347.8,33.5 339.8,33.5" id="Fill-7"></path>
            <path d="M382.2,60.1 C376.3,60.1 373.9,54.1 373.9,46.6 C373.9,38.8 376.4,33.1 382.1,33.1 C386.6,33.1 388.3,36 390,40.6 L402.4,35.7 C399,26.4 394.2,21.2 382.1,21.2 C368.9,21.2 359.6,30.8 359.6,46.6 C359.6,61.2 367.4,72 382,72 C393.7,72 399.2,65.7 402.5,59.3 L391,53.2 C388.3,57.8 386.5,60.1 382.2,60.1" id="Fill-8"></path>
            <path d="M422.9,37 L422.9,34.3 L410.2,34.3 L410.2,71.2 L422.9,71.2 L422.9,51.1 C422.9,46.6 424.8,45.1 427.9,45.1 C430.4,45.1 432.2,46.4 433.8,48.2 L436.8,35.1 C435.3,34.2 433.5,33.5 430.8,33.5 C427.5,33.5 425,34.9 422.9,37" id="Fill-9"></path>
            <path d="M463.9,55.4 C463.9,60 462.3,61.3 459.7,61.3 C457.1,61.3 455.5,60 455.5,55.3 L455.5,34.3 L442.8,34.3 L442.8,56.9 C442.8,66.6 446.7,72 454.8,72 C459.1,72 461.8,70.5 464,68.8 L464,71.3 L476.7,71.3 L476.7,34.4 L464,34.4 L464,55.4" id="Fill-10"></path>
            <path d="M507.8,33.5 C503.4,33.5 500.8,35 498.5,36.7 L498.5,34.2 L485.8,34.2 L485.8,71.1 L498.5,71.1 L498.5,50 C498.5,45.4 500.1,44.1 502.8,44.1 C505.4,44.1 507,45.4 507,50.1 L507,71.1 L519.7,71.1 L519.7,48.5 C519.7,39 515.9,33.5 507.8,33.5" id="Fill-11"></path>
            <path d="M544.9,61.7 C541.5,61.7 539.7,58.7 539.7,52.8 C539.7,47 541.3,43.7 544.5,43.7 C547.2,43.7 548.4,45.2 550.2,48.5 L558.9,41.9 C555.7,36.7 551.7,33.5 544.7,33.5 C532.9,33.5 527.1,41.3 527.1,52.6 C527.1,65 533.6,71.9 544.4,71.9 C550.9,71.9 554.9,69.4 559.2,63.1 L551.2,56.8 C549,60.4 547.3,61.7 544.9,61.7" id="Fill-12"></path>
            <path d="M588.5,33.5 C584.1,33.5 581.5,35 579.2,36.7 L579.2,20 L566.5,25.1 L566.5,71.3 L579.2,71.3 L579.2,50.2 C579.2,45.6 580.8,44.3 583.5,44.3 C586.1,44.3 587.7,45.6 587.7,50.3 L587.7,71.3 L600.4,71.3 L600.4,48.7 C600.5,39 596.6,33.5 588.5,33.5" id="Fill-13"></path>
        </g>
    </g>
</svg>