<svg width="421" height="421" viewBox="0 0 421 421" fill="none" xmlns="http://www.w3.org/2000/svg">
<circle cx="210.5" cy="210.5" r="208.5" stroke="white" stroke-width="4"/>
<circle cx="209" cy="260" r="97" stroke="white" stroke-width="4"/>
<path d="M258 175V113.5C258 86.7142 236.286 65 209.5 65V65C182.714 65 161 86.7142 161 113.5V175" stroke="white" stroke-width="4"/>
<line x1="207" y1="235.272" x2="207" y2="288.272" stroke="white" stroke-width="4" stroke-linecap="round"/>
<rect x="64" y="65" width="292" height="292" stroke="white" stroke-width="4"/>
<line x1="207" y1="65" x2="207" y2="8.74228e-08" stroke="white" stroke-width="4"/>
<line x1="207" y1="419" x2="207" y2="359" stroke="white" stroke-width="4"/>
<line x1="258" y1="173" x2="416" y2="173" stroke="white" stroke-width="4"/>
<line x1="5" y1="173" x2="161" y2="173" stroke="white" stroke-width="4"/>
<mask id="mask0" mask-type="alpha" maskUnits="userSpaceOnUse" x="237" y="175" width="118" height="180">
<path fill-rule="evenodd" clip-rule="evenodd" d="M259.836 175H354.052V355H237C278.067 342.938 308.052 304.97 308.052 260C308.052 223.888 288.717 192.293 259.836 175Z" fill="#C4C4C4"/>
</mask>
<g mask="url(#mask0)">
<line x1="209" y1="193" x2="354" y2="193" stroke="white" stroke-width="4"/>
<line x1="209" y1="213" x2="354" y2="213" stroke="white" stroke-width="4"/>
<line x1="209" y1="233" x2="354" y2="233" stroke="white" stroke-width="4"/>
<line x1="209" y1="253" x2="354" y2="253" stroke="white" stroke-width="4"/>
<line x1="209" y1="273" x2="354" y2="273" stroke="white" stroke-width="4"/>
<line x1="209" y1="293" x2="354" y2="293" stroke="white" stroke-width="4"/>
<line x1="209" y1="313" x2="354" y2="313" stroke="white" stroke-width="4"/>
<line x1="209" y1="333" x2="354" y2="333" stroke="white" stroke-width="4"/>
</g>
<mask id="mask1" mask-type="alpha" maskUnits="userSpaceOnUse" x="229" y="67" width="126" height="104">
<path fill-rule="evenodd" clip-rule="evenodd" d="M260 171V113.5C260 92.6108 247.317 74.6839 229.231 67H354.001V171H260Z" fill="#C4C4C4"/>
</mask>
<g mask="url(#mask1)">
<circle cx="354" cy="67" r="13" stroke="white" stroke-width="4"/>
<circle cx="354" cy="67" r="28" stroke="white" stroke-width="4"/>
<circle cx="354" cy="67" r="43" stroke="white" stroke-width="4"/>
<circle cx="354" cy="67" r="58" stroke="white" stroke-width="4"/>
<circle cx="354" cy="67" r="73" stroke="white" stroke-width="4"/>
<circle cx="354" cy="67" r="88" stroke="white" stroke-width="4"/>
<circle cx="354" cy="66" r="103" stroke="white" stroke-width="4"/>
<circle cx="358" cy="67" r="118" stroke="white" stroke-width="4"/>
<circle cx="358" cy="67" r="133" stroke="white" stroke-width="4"/>
</g>
<mask id="mask2" mask-type="alpha" maskUnits="userSpaceOnUse" x="66" y="67" width="124" height="104">
<path fill-rule="evenodd" clip-rule="evenodd" d="M159 171H66V67H189.769C171.683 74.6839 159 92.6108 159 113.5V171Z" fill="#C4C4C4"/>
</mask>
<g mask="url(#mask2)">
<line x1="180" y1="66" x2="180" y2="211" stroke="white" stroke-width="4"/>
<line x1="161" y1="66" x2="161" y2="211" stroke="white" stroke-width="4"/>
<line x1="142" y1="66" x2="142" y2="211" stroke="white" stroke-width="4"/>
<line x1="123" y1="66" x2="123" y2="211" stroke="white" stroke-width="4"/>
<line x1="104" y1="66" x2="104" y2="211" stroke="white" stroke-width="4"/>
<line x1="85" y1="66" x2="85" y2="211" stroke="white" stroke-width="4"/>
</g>
<mask id="mask3" mask-type="alpha" maskUnits="userSpaceOnUse" x="3" y="61" width="59" height="111">
<path fill-rule="evenodd" clip-rule="evenodd" d="M62.0001 61.3091C32.572 90.6017 11.7606 128.543 3.7002 171H62.0001V61.3091Z" fill="#C4C4C4"/>
</mask>
<g mask="url(#mask3)">
<line x1="39.4093" y1="38.5858" x2="141.94" y2="141.116" stroke="white" stroke-width="4"/>
<line x1="25.2668" y1="52.7279" x2="127.797" y2="155.258" stroke="white" stroke-width="4"/>
<line x1="11.1252" y1="66.87" x2="113.656" y2="169.4" stroke="white" stroke-width="4"/>
<line x1="-3.01743" y1="81.0121" x2="99.5131" y2="183.543" stroke="white" stroke-width="4"/>
<line x1="-17.159" y1="95.1541" x2="85.3715" y2="197.685" stroke="white" stroke-width="4"/>
<line x1="-31.3016" y1="109.296" x2="71.2289" y2="211.827" stroke="white" stroke-width="4"/>
<line x1="-45.4432" y1="123.439" x2="57.0873" y2="225.969" stroke="white" stroke-width="4"/>
</g>
<mask id="mask4" mask-type="alpha" maskUnits="userSpaceOnUse" x="358" y="175" width="63" height="186">
<path fill-rule="evenodd" clip-rule="evenodd" d="M358 360.68C396.883 322.486 421 269.31 421 210.5C421 198.401 419.979 186.541 418.019 175H358V360.68Z" fill="#C4C4C4"/>
</mask>
<g mask="url(#mask4)">
<line x1="368.267" y1="156.586" x2="470.797" y2="259.116" stroke="white" stroke-width="4"/>
<line x1="354.124" y1="170.728" x2="456.655" y2="273.258" stroke="white" stroke-width="4"/>
<line x1="339.983" y1="184.87" x2="442.513" y2="287.4" stroke="white" stroke-width="4"/>
<line x1="325.84" y1="199.012" x2="428.37" y2="301.543" stroke="white" stroke-width="4"/>
<line x1="311.698" y1="213.154" x2="414.229" y2="315.685" stroke="white" stroke-width="4"/>
<line x1="297.556" y1="227.296" x2="400.086" y2="329.827" stroke="white" stroke-width="4"/>
<line x1="283.414" y1="241.439" x2="385.945" y2="343.969" stroke="white" stroke-width="4"/>
</g>
<mask id="mask5" mask-type="alpha" maskUnits="userSpaceOnUse" x="61" y="359" width="144" height="62">
<path fill-rule="evenodd" clip-rule="evenodd" d="M205 420.93V359H61.3086C98.2262 396.088 148.882 419.49 205 420.93Z" fill="#C4C4C4"/>
</mask>
<g mask="url(#mask5)">
<line y1="-2" x2="145" y2="-2" transform="matrix(-0.707107 0.707107 0.707107 0.707107 168.53 285)" stroke="white" stroke-width="4"/>
<line y1="-2" x2="145" y2="-2" transform="matrix(-0.707107 0.707107 0.707107 0.707107 182.673 299.142)" stroke="white" stroke-width="4"/>
<line y1="-2" x2="145" y2="-2" transform="matrix(-0.707107 0.707107 0.707107 0.707107 196.814 313.284)" stroke="white" stroke-width="4"/>
<line y1="-2" x2="145" y2="-2" transform="matrix(-0.707107 0.707107 0.707107 0.707107 210.957 327.426)" stroke="white" stroke-width="4"/>
<line y1="-2" x2="145" y2="-2" transform="matrix(-0.707107 0.707107 0.707107 0.707107 225.099 341.568)" stroke="white" stroke-width="4"/>
<line y1="-2" x2="145" y2="-2" transform="matrix(-0.707107 0.707107 0.707107 0.707107 239.241 355.71)" stroke="white" stroke-width="4"/>
<line y1="-2" x2="145" y2="-2" transform="matrix(-0.707107 0.707107 0.707107 0.707107 253.383 369.853)" stroke="white" stroke-width="4"/>
</g>
</svg>
