<svg width="416" height="106" viewBox="0 0 416 106" fill="none" xmlns="http://www.w3.org/2000/svg">
<path fill-rule="evenodd" clip-rule="evenodd" d="M415.505 34.739C412.421 34.977 410.523 37.06 407.32 44.176L386.442 89.966C381.578 100.524 375.123 104.794 366.701 104.794C361.861 104.47 357.241 102.943 356.006 99.101C354.806 95.175 357.777 90.091 362.127 88.761C368.706 86.751 369.391 96.501 375.375 94.453C378.088 93.546 380.649 90.065 382.456 84.793L358.866 41.685C355.514 35.578 355.154 35.338 351.202 34.739V29.112H383.295V34.739C376.229 34.979 375.391 37.973 377.786 42.403L390.838 66.113L399.7 46.475C402.573 40.128 400.897 34.86 394.191 34.739V29.112H415.505V34.739" fill="white"/>
<path fill-rule="evenodd" clip-rule="evenodd" d="M309.3 63.57C309.3 72.671 312.653 78.538 320.077 78.538C327.022 78.538 332.53 69.918 332.53 59.5C332.53 47.884 326.424 39.263 318.401 39.263C315.647 39.263 313.012 40.22 309.3 42.855V63.57ZM292.057 43.454L283.195 37.586V33.993L302.954 27.648H309.3V36.15C315.048 30.521 321.634 27.648 328.22 27.648C341.272 27.648 351.211 39.143 351.211 54.11C351.211 71.952 337.56 84.287 318.999 84.287C315.168 84.287 312.653 83.928 309.3 82.97V88.956C309.3 96.501 311.575 99.853 318.88 99.853V105.482H283.195V99.853C289.662 99.853 292.057 95.782 292.057 89.675V43.454V43.454Z" fill="white"/>
<path fill-rule="evenodd" clip-rule="evenodd" d="M250.828 33.275C242.326 33.275 240.41 41.657 240.41 52.434C240.41 72.312 245.319 78.659 252.624 78.659C259.09 78.659 262.922 72.91 262.922 62.973C262.922 44.173 259.09 33.275 250.828 33.275ZM251.187 84.287C233.584 84.287 221.85 73.27 221.85 56.984C221.85 42.256 231.908 27.648 252.504 27.648C274.058 27.648 281.482 43.933 281.482 56.027C281.482 70.636 272.382 84.287 251.187 84.287V84.287Z" fill="white"/>
<path fill-rule="evenodd" clip-rule="evenodd" d="M178.016 67.043C178.016 72.671 179.452 76.383 185.56 77.342V82.97H152.391V77.342C158.138 77.102 160.773 73.988 160.773 67.523V43.814L152.391 37.586V34.353L172.028 28.006H178.016V37.586C184.003 31.12 190.23 27.648 197.534 27.648C208.191 27.648 215.017 33.515 215.017 45.25V65.007C215.017 73.869 216.453 76.144 222.8 77.342V82.97H190.588V77.342C195.857 76.503 197.773 73.151 197.773 67.163V48.603C197.773 42.735 194.9 38.544 189.152 38.544C185.44 38.544 181.369 40.341 178.016 42.735V67.043" fill="white"/>
<path fill-rule="evenodd" clip-rule="evenodd" d="M122.57 70.507C118.024 74.095 114.914 75.651 111.923 75.651C108.095 75.651 105.105 72.182 105.105 67.755C105.105 61.176 111.564 58.783 122.57 55.673V70.507ZM147.212 70.507C143.145 72.779 139.795 72.659 139.795 67.397V42.515C139.795 32.705 134.053 27.801 117.067 27.801H114.076C114.076 27.801 88.4896 27.692 88.4896 42.27C88.4896 42.27 88.5266 46.677 92.8086 48.077C97.0916 49.477 100.702 47.623 101.622 46.924C103.412 45.562 104.301 43.035 105.53 38.818C107.114 33.381 114.076 33.423 114.076 33.423C119.34 33.423 122.57 36.533 122.57 41.319V50.17C109.53 53.401 86.4426 56.989 86.4426 72.062C86.4426 79.359 93.3816 84.383 103.549 84.383C111.086 84.383 115.99 82.349 122.57 76.368C124.723 81.871 128.551 84.383 134.532 84.383C139.675 84.383 144.819 81.392 148.169 76.368L147.212 70.507V70.507Z" fill="white"/>
<path fill-rule="evenodd" clip-rule="evenodd" d="M82.3976 22.097C82.1416 24.695 80.9806 27.265 78.9346 28.886C76.8886 30.506 73.9166 31.026 71.5806 29.861C69.5316 28.839 68.2466 26.768 67.1486 24.758C63.5666 18.206 60.2746 10.649 53.4756 7.565C51.5316 6.682 49.4236 6.269 47.2946 6.246H47.0576C35.7876 6.826 23.4136 13.327 23.4136 41.673C23.4136 59.064 34.8906 72.536 49.0376 72.536C66.5206 72.536 72.5756 62.68 76.0546 59.2C77.6956 57.56 78.5356 57.895 80.5266 59.768C83.3396 62.415 83.5456 64.175 80.0786 68.487L80.0826 68.49L80.0216 68.587C65.4036 86.64 45.4416 85.992 45.4416 85.992C-0.97242 85.992 0.00158026 43.121 0.00158026 43.121C0.00158026 22.706 13.0106 8.236 32.0636 2.757C36.9106 1.364 42.0046 0.405 47.0576 0.25L47.2946 0.254C53.7336 0.186 60.1846 1.222 66.2556 3.37C70.4496 4.854 74.5406 6.903 77.6616 10.074C80.7816 13.245 82.8336 17.67 82.3976 22.097" fill="white"/>
</svg>
