<svg width="416" height="106" viewBox="0 0 416 106" fill="none" xmlns="http://www.w3.org/2000/svg">
<path fill-rule="evenodd" clip-rule="evenodd" d="M415.505 34.489C412.421 34.727 410.523 36.81 407.32 43.926L386.442 89.716C381.578 100.274 375.123 104.544 366.701 104.544C361.861 104.22 357.241 102.693 356.006 98.851C354.806 94.925 357.777 89.841 362.127 88.511C368.706 86.501 369.391 96.251 375.375 94.203C378.088 93.296 380.649 89.815 382.456 84.543L358.866 41.435C355.514 35.328 355.154 35.088 351.202 34.489V28.862H383.295V34.489C376.229 34.729 375.391 37.723 377.786 42.153L390.838 65.863L399.7 46.225C402.573 39.878 400.897 34.61 394.191 34.489V28.862H415.505V34.489" fill="black"/>
<path fill-rule="evenodd" clip-rule="evenodd" d="M309.3 63.32C309.3 72.421 312.653 78.288 320.077 78.288C327.022 78.288 332.53 69.668 332.53 59.25C332.53 47.634 326.424 39.013 318.401 39.013C315.647 39.013 313.012 39.97 309.3 42.605V63.32ZM292.057 43.204L283.195 37.336V33.743L302.954 27.398H309.3V35.9C315.048 30.271 321.634 27.398 328.22 27.398C341.272 27.398 351.211 38.893 351.211 53.86C351.211 71.702 337.56 84.037 318.999 84.037C315.168 84.037 312.653 83.678 309.3 82.72V88.706C309.3 96.251 311.575 99.603 318.88 99.603V105.232H283.195V99.603C289.662 99.603 292.057 95.532 292.057 89.425V43.204V43.204Z" fill="black"/>
<path fill-rule="evenodd" clip-rule="evenodd" d="M250.828 33.025C242.326 33.025 240.41 41.407 240.41 52.184C240.41 72.062 245.319 78.409 252.624 78.409C259.09 78.409 262.922 72.66 262.922 62.723C262.922 43.923 259.09 33.025 250.828 33.025ZM251.187 84.037C233.584 84.037 221.85 73.02 221.85 56.734C221.85 42.006 231.908 27.398 252.504 27.398C274.058 27.398 281.482 43.683 281.482 55.777C281.482 70.386 272.382 84.037 251.187 84.037V84.037Z" fill="black"/>
<path fill-rule="evenodd" clip-rule="evenodd" d="M178.016 66.793C178.016 72.421 179.452 76.133 185.56 77.092V82.72H152.391V77.092C158.138 76.852 160.773 73.738 160.773 67.273V43.564L152.391 37.336V34.103L172.028 27.756H178.016V37.336C184.003 30.87 190.23 27.398 197.534 27.398C208.191 27.398 215.017 33.265 215.017 45V64.757C215.017 73.619 216.453 75.894 222.8 77.092V82.72H190.588V77.092C195.857 76.253 197.773 72.901 197.773 66.913V48.353C197.773 42.485 194.9 38.294 189.152 38.294C185.44 38.294 181.369 40.091 178.016 42.485V66.793" fill="black"/>
<path fill-rule="evenodd" clip-rule="evenodd" d="M122.57 70.257C118.024 73.845 114.914 75.401 111.923 75.401C108.095 75.401 105.105 71.932 105.105 67.505C105.105 60.926 111.564 58.533 122.57 55.423V70.257ZM147.212 70.257C143.145 72.529 139.795 72.409 139.795 67.147V42.265C139.795 32.455 134.053 27.551 117.067 27.551H114.076C114.076 27.551 88.4896 27.442 88.4896 42.02C88.4896 42.02 88.5266 46.427 92.8086 47.827C97.0916 49.227 100.702 47.373 101.622 46.674C103.412 45.312 104.301 42.785 105.53 38.568C107.114 33.131 114.076 33.173 114.076 33.173C119.34 33.173 122.57 36.283 122.57 41.069V49.92C109.53 53.151 86.4426 56.739 86.4426 71.812C86.4426 79.109 93.3816 84.133 103.549 84.133C111.086 84.133 115.99 82.099 122.57 76.118C124.723 81.621 128.551 84.133 134.532 84.133C139.675 84.133 144.819 81.142 148.169 76.118L147.212 70.257V70.257Z" fill="black"/>
<path fill-rule="evenodd" clip-rule="evenodd" d="M82.3976 21.847C82.1416 24.445 80.9806 27.015 78.9346 28.636C76.8886 30.256 73.9166 30.776 71.5806 29.611C69.5316 28.589 68.2466 26.518 67.1486 24.508C63.5666 17.956 60.2746 10.399 53.4756 7.315C51.5316 6.432 49.4236 6.019 47.2946 5.996H47.0576C35.7876 6.576 23.4136 13.077 23.4136 41.423C23.4136 58.814 34.8906 72.286 49.0376 72.286C66.5206 72.286 72.5756 62.43 76.0546 58.95C77.6956 57.31 78.5356 57.645 80.5266 59.518C83.3396 62.165 83.5456 63.925 80.0786 68.237L80.0826 68.24L80.0216 68.337C65.4036 86.39 45.4416 85.742 45.4416 85.742C-0.97242 85.742 0.00158026 42.871 0.00158026 42.871C0.00158026 22.456 13.0106 7.986 32.0636 2.507C36.9106 1.114 42.0046 0.155 47.0576 0L47.2946 0.004C53.7336 -0.064 60.1846 0.972 66.2556 3.12C70.4496 4.604 74.5406 6.653 77.6616 9.824C80.7816 12.995 82.8336 17.42 82.3976 21.847" fill="black"/>
</svg>
